# xmcd
# 
# Track frame offsets:
#     150
#     15132
#     31330
#     59947
# 
# Disc length: 1131
# 
# Revision: 0
# Processed by: cddbd v1.5.2PL0 Copyright (c) Steve Scherf et al.
# Submitted via: fre:ac v1.0.17
# 
DISCID=2a046904
DTITLE=attesa. - World in Motion
DYEAR=93
DGENRE=Club
TTITLE0=World in Motion (Radio Mix)
TTITLE1=World in Motion (Pip Mix)
TTITLE2=World in Motion (Extended Club Mix)
TTITLE3=World in Motion (Finalmente Mix)
EXTD=
EXTT0=
EXTT1=
EXTT2=
EXTT3=
PLAYORDER=
